<mxfile host="app.diagrams.net" modified="2023-05-09T17:56:06.781Z" agent="Mozilla/5.0 (Windows NT 10.0; Win64; x64) AppleWebKit/537.36 (KHTML, like Gecko) Chrome/111.0.0.0 Safari/537.36 OPR/97.0.0.0" etag="VIG2yaUkXYEFA7jdBqm2" version="21.2.9">
  <diagram id="zhF1wm3NvSOzsTAnGrUe" name="Strona-1">
    <mxGraphModel dx="1393" dy="758" grid="1" gridSize="10" guides="1" tooltips="1" connect="1" arrows="1" fold="1" page="1" pageScale="1" pageWidth="827" pageHeight="1169" math="0" shadow="0">
      <root>
        <mxCell id="0" />
        <mxCell id="1" parent="0" />
        <mxCell id="ApZp20xeR2CEVT5xDsbf-7" value="" style="rounded=0;whiteSpace=wrap;html=1;" vertex="1" parent="1">
          <mxGeometry x="240" y="40" width="940" height="450" as="geometry" />
        </mxCell>
        <mxCell id="ApZp20xeR2CEVT5xDsbf-8" value="" style="rounded=0;whiteSpace=wrap;html=1;" vertex="1" parent="1">
          <mxGeometry x="240" y="40" width="180" height="450" as="geometry" />
        </mxCell>
        <mxCell id="ApZp20xeR2CEVT5xDsbf-9" value="brutto/netto" style="rounded=0;whiteSpace=wrap;html=1;" vertex="1" parent="1">
          <mxGeometry x="240" y="140" width="180" height="40" as="geometry" />
        </mxCell>
        <mxCell id="ApZp20xeR2CEVT5xDsbf-10" value="predkosc spadania i moc uderzenia o ziemie" style="rounded=0;whiteSpace=wrap;html=1;" vertex="1" parent="1">
          <mxGeometry x="240" y="180" width="180" height="40" as="geometry" />
        </mxCell>
        <mxCell id="ApZp20xeR2CEVT5xDsbf-11" value="Plan dnia[baza danych]" style="rounded=0;whiteSpace=wrap;html=1;" vertex="1" parent="1">
          <mxGeometry x="240" y="220" width="180" height="40" as="geometry" />
        </mxCell>
        <mxCell id="ApZp20xeR2CEVT5xDsbf-12" value="" style="rounded=0;whiteSpace=wrap;html=1;" vertex="1" parent="1">
          <mxGeometry x="240" y="260" width="180" height="40" as="geometry" />
        </mxCell>
        <mxCell id="ApZp20xeR2CEVT5xDsbf-13" value="" style="rounded=0;whiteSpace=wrap;html=1;" vertex="1" parent="1">
          <mxGeometry x="240" y="300" width="180" height="40" as="geometry" />
        </mxCell>
        <mxCell id="ApZp20xeR2CEVT5xDsbf-14" value="" style="rounded=0;whiteSpace=wrap;html=1;" vertex="1" parent="1">
          <mxGeometry x="240" y="340" width="180" height="40" as="geometry" />
        </mxCell>
        <mxCell id="ApZp20xeR2CEVT5xDsbf-16" value="" style="rounded=0;whiteSpace=wrap;html=1;" vertex="1" parent="1">
          <mxGeometry x="420" y="140" width="760" height="290" as="geometry" />
        </mxCell>
        <mxCell id="ApZp20xeR2CEVT5xDsbf-17" value="Tool nazwa" style="text;html=1;strokeColor=none;fillColor=none;align=center;verticalAlign=middle;whiteSpace=wrap;rounded=0;" vertex="1" parent="1">
          <mxGeometry x="780" y="70" width="60" height="30" as="geometry" />
        </mxCell>
      </root>
    </mxGraphModel>
  </diagram>
</mxfile>
